<svg width="360" height="640" viewBox="0 0 360 640" fill="none" xmlns="http://www.w3.org/2000/svg">
<g clip-path="url(#clip0)">
<rect width="360" height="640" fill="white"/>
<path fill-rule="evenodd" clip-rule="evenodd" d="M360 0H0V250.363C34.7439 273.351 61.6529 284.829 87.253 285.003C114.292 285.187 140.525 272.755 173.625 246.258L173.706 246.193L173.791 246.134C221.324 213.177 257.089 193.751 287.518 188.899C314.724 184.561 337.391 191.9 360 210.686V0ZM360 218.6C337.083 198.195 315.092 190.578 288.462 194.824C259.533 199.437 224.787 218.084 177.294 251.006C143.847 277.767 116.286 291.2 87.2122 291.003C60.7135 290.822 33.504 279.314 0 257.539V261.363C34.7439 284.351 61.6529 295.829 87.253 296.003C114.292 296.187 140.525 283.755 173.625 257.258L173.729 257.175L173.839 257.102C222.184 224.957 260.183 210.695 291.464 210.618C319.095 210.55 341.102 221.542 360 240.234V218.6ZM360 248.862C340.98 228.333 319.214 216.55 291.479 216.618C261.961 216.691 225.191 230.18 177.271 262.025C143.834 288.773 116.28 302.2 87.2122 302.003C60.7135 301.822 33.504 290.314 0 268.539V273.191C34.4034 292.73 61.4214 302.341 87.9206 302.096C115.29 301.843 142.596 291.07 177.38 268.756L177.446 268.714L177.514 268.675C223.99 242.18 259.493 230.356 289.141 231.235C316.914 232.059 339.114 244.007 360 264.472V248.862ZM360 273.008C338.532 250.596 316.6 238.052 288.963 237.233C260.994 236.404 226.686 247.558 180.554 273.849C151.619 292.403 127.233 303.438 103.334 306.908C125.158 304.406 148.931 296.482 177.66 282.135L177.672 282.128L177.685 282.122C227.483 257.83 262.703 247.784 291.063 250.468C318.662 253.081 339.225 267.683 360 291.411V273.008ZM360 296L357.717 297.947C336.604 273.187 316.863 258.938 290.497 256.442C263.884 253.922 229.945 263.306 180.328 287.509C141.962 306.667 111.659 314.854 82.7299 313.675C55.4613 312.565 29.7467 303.143 0 287.378V640H360V296ZM0 280.575C11.3619 286.696 22.0225 291.855 32.3073 295.98C22.0874 291.752 11.398 286.44 0 280.077V280.575Z" fill="url(#paint0_linear)"/>
<path d="M0 291.5C61.2521 326.713 114.006 320.829 181.5 306.5C268.494 255.625 308.327 256.994 361 320V640H0V291.5Z" fill="white"/>
<path d="M-1 0H360V189C309.136 156.098 274.9 172.906 185 228C114.929 262.325 76.4258 291.022 -1 237V0Z" fill="#79D4BE"/>
<path d="M0 0H361V189C310.136 156.098 275.9 172.906 186 228C115.929 262.325 77.4258 291.022 0 237V0Z" fill="url(#paint1_linear)"/>
</g>
<defs>
<linearGradient id="paint0_linear" x1="180" y1="203.5" x2="197" y2="426.5" gradientUnits="userSpaceOnUse">
<stop stop-color="#79D4BE"/>
<stop offset="0.878453" stop-color="white"/>
</linearGradient>
<linearGradient id="paint1_linear" x1="180.5" y1="0" x2="180.5" y2="267.056" gradientUnits="userSpaceOnUse">
<stop stop-color="#41A7B3"/>
<stop offset="1" stop-color="#41A7B3" stop-opacity="0"/>
</linearGradient>
<clipPath id="clip0">
<rect width="360" height="640" fill="white"/>
</clipPath>
</defs>
</svg>
