<svg width="40" height="40" viewBox="0 0 40 40" fill="none" xmlns="http://www.w3.org/2000/svg">
<g clip-path="url(#clip0)">
<path d="M20 40C18.16 40 16.3867 39.76 14.68 39.28C12.9733 38.7998 11.38 38.1267 9.9 37.26C8.42 36.3933 7.07333 35.3533 5.86 34.14C4.64667 32.9268 3.60667 31.58 2.74 30.1C1.87333 28.6199 1.2 27.0267 0.72 25.3199C0.24 23.6133 0 21.84 0 20C0 18.16 0.24 16.3867 0.72 14.68C1.2 12.9733 1.87333 11.38 2.74 9.9C3.60667 8.42 4.64667 7.07333 5.86 5.86C7.07333 4.64667 8.42 3.60667 9.9 2.74C11.38 1.87333 12.9733 1.2 14.68 0.72C16.3867 0.24 18.16 0 20 0C22.7467 0 25.34 0.526667 27.78 1.58C30.22 2.63333 32.34 4.06 34.14 5.86C35.94 7.66 37.3667 9.78 38.42 12.22C39.4733 14.66 40 17.2533 40 20C40 21.84 39.76 23.6133 39.28 25.32C38.7998 27.0265 38.1267 28.6198 37.26 30.1C36.3933 31.58 35.3533 32.9267 34.14 34.14C32.9268 35.3533 31.58 36.3935 30.1 37.26C28.6199 38.1267 27.0267 38.8 25.3199 39.28C23.6133 39.76 21.84 40 20 40ZM29.64 11.76H10.68C10.4933 11.76 10.3333 11.82 10.2 11.94C10.0667 12.06 10 12.2267 10 12.44V14.56C10 14.6667 10.04 14.72 10.12 14.72L20.08 20.4L20.1602 20.44C20.2133 20.44 20.2535 20.4267 20.2802 20.4L29.9202 14.72C29.9733 14.6933 30.0135 14.68 30.0402 14.68C30.0667 14.68 30.1069 14.6667 30.1602 14.64C30.2669 14.64 30.3202 14.5867 30.3202 14.48V12.44C30.3202 12.2267 30.2535 12.06 30.12 11.94C29.9865 11.82 29.8267 11.76 29.64 11.76ZM16.04 20.28C16.0667 20.2533 16.08 20.2133 16.08 20.16C16.08 20.0798 16.0533 20.04 16 20.04L10.28 16.7599C10.2 16.7333 10.1333 16.7333 10.08 16.7599C10.0267 16.7599 10 16.7999 10 16.8799V25.4799C10 25.5601 10.04 25.6133 10.12 25.6399H10.2C10.2533 25.6399 10.28 25.6266 10.28 25.5999L16.04 20.28ZM23 20.92C22.9733 20.8398 22.9065 20.8267 22.7998 20.88L20.5998 22.16C20.3331 22.32 20.0533 22.32 19.7598 22.16L17.8398 21.0802C17.7598 21.0269 17.6931 21.0269 17.6398 21.0802L10.3198 27.8802C10.2931 27.9067 10.2798 27.9602 10.2798 28.04C10.2798 28.0667 10.3065 28.1067 10.3598 28.16C10.5198 28.2133 10.6265 28.2402 10.6798 28.2402H29.4399C29.4932 28.2402 29.5467 28.2135 29.5999 28.16C29.5999 28.0533 29.5865 27.9869 29.5599 27.96L23 20.92ZM30.2 16.6H30.0402L24.6002 19.84C24.5471 19.84 24.5202 19.88 24.5202 19.96C24.4935 19.9867 24.5069 20.0267 24.56 20.0798L30 25.96C30.0533 26.0133 30.0933 26.0402 30.12 26.0402H30.2C30.2802 25.96 30.3202 25.9069 30.3202 25.8802V16.7601C30.32 16.7067 30.28 16.6533 30.2 16.6Z" fill="#FF83A6"/>
</g>
<defs>
<clipPath id="clip0">
<rect width="40" height="40" fill="white"/>
</clipPath>
</defs>
</svg>
