<svg width="40" height="40" viewBox="0 0 40 40" fill="none" xmlns="http://www.w3.org/2000/svg">
<path d="M34.1368 5.86073C26.3225 -1.95358 13.6616 -1.95358 5.85563 5.86073C-1.65941 13.3758 -1.94206 25.3965 5.01601 33.2524L5.22384 33.4187C4.46734 35.048 3.1705 37.0598 1.10885 38.074C0.427175 38.4065 0.585124 39.4207 1.3333 39.5371C3.58615 39.8862 6.81995 39.4955 9.83761 37.2177L9.87918 37.251C17.5439 41.7567 27.5695 40.7259 34.1534 34.1419C41.9511 26.3359 41.9511 13.6667 34.1368 5.86073ZM26.5885 28.5555C26.1479 29.0044 25.6824 29.4201 25.2667 29.8856C24.6599 30.5673 23.8951 30.7834 23.0305 30.7335C21.7669 30.667 20.5948 30.2431 19.4725 29.6944C16.9703 28.4807 14.8338 26.7931 13.0465 24.665C11.7247 23.0938 10.6357 21.3813 9.91243 19.4443C9.56328 18.505 9.31388 17.549 9.3887 16.5348C9.43858 15.9113 9.67135 15.3792 10.1286 14.9386C10.6274 14.4648 11.0929 13.9743 11.5834 13.4922C12.2235 12.8604 13.0215 12.8687 13.6616 13.4922C14.0607 13.8829 14.4431 14.2736 14.8338 14.6643C15.2162 15.0467 15.5986 15.4208 15.9727 15.8032C16.6377 16.4766 16.6377 17.258 15.9727 17.9314C15.4988 18.4135 15.025 18.8957 14.5345 19.3612C14.4098 19.4859 14.3932 19.5857 14.4597 19.7436C14.7756 20.5084 15.2411 21.1901 15.7565 21.8219C16.7957 23.1021 17.9761 24.241 19.3894 25.1222C19.6886 25.3134 20.0212 25.4464 20.3371 25.621C20.495 25.7124 20.6114 25.6792 20.7361 25.5462C21.2099 25.0557 21.7004 24.5735 22.1826 24.0914C22.8227 23.4596 23.6207 23.4596 24.2525 24.0914C25.034 24.8645 25.8071 25.6376 26.5802 26.419C27.2453 27.1007 27.2453 27.8988 26.5885 28.5555ZM19.2148 15.6369L19.4642 13.8579C21.185 14.099 22.7479 14.8804 23.9782 16.1108C25.1504 17.2829 25.9152 18.7544 26.1895 20.3754L24.4188 20.683C24.2027 19.4277 23.6124 18.2888 22.7063 17.3827C21.7503 16.4267 20.5449 15.8198 19.2148 15.6369ZM29.0824 20.3754C28.6834 18.0477 27.5861 15.9362 25.9152 14.257C24.1528 12.4946 21.9166 11.3806 19.4476 11.0315L19.697 9.25248C22.5483 9.65151 25.142 10.94 27.1787 12.9851C29.1157 14.922 30.3876 17.3744 30.8531 20.0678L29.0824 20.3754Z" fill="#FF83A6"/>
</svg>
