<svg width="48" height="48" viewBox="0 0 48 48" fill="none" xmlns="http://www.w3.org/2000/svg">
<g filter="url(#filter0_d)">
<circle cx="24" cy="20" r="20" fill="#43A9B3"/>
</g>
<path d="M24.0006 1C12.9552 1 4.00098 9.95446 4.00098 20.9995C4.00098 32.0445 12.9552 41 24.0004 41C35.0457 41 44.0006 32.0449 44.0006 20.9995C44.0006 9.95406 35.0458 1 24.0006 1ZM9.43181 28.533C9.43181 22.2852 14.9188 22.2865 16.1364 20.6529L16.2757 19.908C14.565 19.0407 13.3574 16.9509 13.3574 14.5061C13.3574 11.2855 15.4524 8.67432 18.036 8.67432C20.0704 8.67432 21.7967 10.2962 22.441 12.5567C19.8529 13.3792 17.9385 16.1853 17.9385 19.5211C17.9385 21.8176 18.8439 23.9291 20.3302 25.2706C20.0915 25.393 19.826 25.5178 19.5977 25.6247C18.3992 26.187 16.7379 26.9686 15.5393 28.533H9.43181V28.533ZM24.0614 33.5476V33.5473H23.9392H15.3964C15.3964 27.2998 20.8834 27.3015 22.101 25.6679L22.2403 24.923C20.5296 24.0556 19.322 21.9659 19.322 19.5211C19.322 16.3005 21.417 13.6893 24.0006 13.6893C26.5842 13.6893 28.6791 16.3005 28.6791 19.5211C28.6791 21.9448 27.493 24.0222 25.8051 24.9026L25.9638 25.7495C27.2997 27.3039 32.6041 27.4052 32.6041 33.5476H24.0614V33.5476ZM32.4613 28.5333V28.533C31.2624 26.9688 29.601 26.1874 28.4025 25.6251C28.1666 25.5144 27.9051 25.3916 27.6714 25.2716C29.1563 23.9284 30.0627 21.8124 30.0627 19.5211C30.0627 16.1857 28.149 13.3801 25.5617 12.5574C26.2055 10.2965 27.9318 8.67458 29.9666 8.67458C32.5505 8.67458 34.6452 11.2858 34.6452 14.5064C34.6452 16.9301 33.459 19.0072 31.7712 19.8879L31.9298 20.7348C33.2657 22.2889 38.5701 22.3901 38.5701 28.5333H32.4613Z" fill="white"/>
<defs>
<filter id="filter0_d" x="0" y="0" width="48" height="48" filterUnits="userSpaceOnUse" color-interpolation-filters="sRGB">
<feFlood flood-opacity="0" result="BackgroundImageFix"/>
<feColorMatrix in="SourceAlpha" type="matrix" values="0 0 0 0 0 0 0 0 0 0 0 0 0 0 0 0 0 0 127 0"/>
<feOffset dy="4"/>
<feGaussianBlur stdDeviation="2"/>
<feColorMatrix type="matrix" values="0 0 0 0 0 0 0 0 0 0 0 0 0 0 0 0 0 0 0.25 0"/>
<feBlend mode="normal" in2="BackgroundImageFix" result="effect1_dropShadow"/>
<feBlend mode="normal" in="SourceGraphic" in2="effect1_dropShadow" result="shape"/>
</filter>
</defs>
</svg>
