<svg width="68" height="68" viewBox="0 0 68 68" fill="none" xmlns="http://www.w3.org/2000/svg">
<g filter="url(#filter0_d)">
<path d="M64 30C64 46.5685 50.5685 60 34 60C17.4315 60 4 46.5685 4 30C4 13.4315 17.4315 0 34 0C50.5685 0 64 13.4315 64 30Z" fill="white"/>
</g>
<path d="M37.5548 13.7538C37.3637 13.7014 37.1898 13.7359 37.1583 13.8506C37.1269 13.9653 37.2588 14.0837 37.45 14.1361C37.6411 14.1885 37.815 14.154 37.8464 14.0393C37.8779 13.9246 37.7459 13.8062 37.5548 13.7538Z" fill="#41A7B3"/>
<path fill-rule="evenodd" clip-rule="evenodd" d="M39.8535 13.3155C39.8766 13.2316 39.8325 13.1513 39.7623 13.1019C39.7366 13.0839 39.7073 13.0699 39.6766 13.0615L36.1595 12.0969C36.0448 12.0654 35.9474 12.1209 35.8777 12.2251L34.5081 14.5213L39.8602 15.9892L39.8535 13.3155ZM37.2508 14.8624C36.6391 14.6947 36.2574 14.1379 36.4042 13.6027C36.551 13.0675 37.1633 12.7832 37.775 12.951C38.3866 13.1188 38.7578 13.7138 38.6215 14.2108C38.4747 14.746 37.8624 15.0302 37.2508 14.8624Z" fill="#41A7B3"/>
<path d="M40.7915 43.1679C41.1738 43.2728 41.5246 43.4923 41.8163 43.7778L43.9684 19.2944C43.9926 19.0592 43.9592 18.8258 43.878 18.6112C43.7106 18.1692 43.3402 17.8068 42.8512 17.6727L31.0385 14.4329C30.3121 14.2337 29.5642 14.5629 29.2503 15.2578L18.6496 37.4241C19.0078 37.3168 19.4216 37.307 19.8421 37.4223L40.7915 43.1679Z" fill="#41A7B3"/>
<path d="M19.6429 38.1487L40.5923 43.8943C41.3569 44.104 41.8113 44.8452 41.6398 45.6202C41.5072 45.9538 41.3087 46.2282 41.0059 46.4329C40.6057 46.6931 40.1223 46.8071 39.6253 46.6708L19.0582 41.03C18.5994 40.9042 18.1931 40.5873 17.9921 40.1211C17.8361 39.7906 17.8053 39.4533 17.8614 39.0987C18.0989 38.3829 18.8783 37.939 19.6429 38.1487Z" fill="#41A7B3"/>
<path fill-rule="evenodd" clip-rule="evenodd" d="M43.2319 45.5934C43.2251 45.6528 43.2187 45.7083 43.2041 45.7615L43.2596 45.859L43.1758 46.1648C42.7354 47.7704 41.0304 48.7414 39.4248 48.3011L18.4371 42.545C16.8315 42.1046 15.8605 40.3997 16.3008 38.794L16.3218 38.7176C16.3742 38.5264 16.4371 38.2971 16.5383 38.0782L27.7668 14.5221C28.4223 13.181 29.9774 12.4566 31.4301 12.855L33.2651 13.3583L34.4639 11.3852C34.9517 10.6558 35.7379 10.3371 36.5407 10.5573L40.0577 11.5219C40.8605 11.742 41.4296 12.5147 41.4111 13.3317L41.4356 15.6403L43.2706 16.1435C44.7615 16.5524 45.7018 17.9201 45.571 19.4462L43.2708 45.3688C43.2483 45.4507 43.2398 45.5247 43.2319 45.5934ZM18.6468 41.7804L39.6345 47.5365C40.8196 47.8615 42.0757 47.1784 42.4112 45.9551C42.3834 45.9064 42.3557 45.8577 42.3662 45.8194C42.4081 45.6665 42.4605 45.4754 42.4642 45.312L44.7644 19.3894C44.8348 18.6177 44.5275 17.8783 43.9684 17.3926C43.714 17.1716 43.4076 17.0032 43.0609 16.9081L40.6525 16.2476L40.6323 13.3236C40.6328 13.0015 40.4672 12.6756 40.206 12.4694C40.1007 12.3863 39.9799 12.3226 39.848 12.2864L36.331 11.3218C35.8722 11.196 35.4061 11.397 35.1273 11.8138L33.6184 14.3184L31.2099 13.6578C30.1013 13.3538 28.9636 13.905 28.4789 14.9229L17.2609 38.4408C17.1807 38.5832 17.1283 38.7744 17.0864 38.9273L17.0654 39.0037C16.7404 40.1888 17.4235 41.4449 18.6468 41.7804Z" fill="#41A7B3"/>
<path fill-rule="evenodd" clip-rule="evenodd" d="M36.4042 13.6027C36.2574 14.1379 36.6391 14.6947 37.2508 14.8624C37.8624 15.0302 38.4747 14.746 38.6215 14.2108C38.7578 13.7138 38.3866 13.1188 37.775 12.951C37.1633 12.7832 36.551 13.0675 36.4042 13.6027ZM37.5548 13.7538C37.3637 13.7014 37.1898 13.7359 37.1583 13.8506C37.1269 13.9653 37.2588 14.0837 37.45 14.1361C37.6411 14.1885 37.815 14.154 37.8464 14.0393C37.8779 13.9246 37.7459 13.8062 37.5548 13.7538Z" fill="#41A7B3"/>
<path d="M43.0609 16.9081L40.6525 16.2476L39.8602 15.9892L34.5081 14.5213L33.6184 14.3184L31.2099 13.6578C30.1013 13.3538 28.9636 13.905 28.4789 14.9229L17.2609 38.4408C17.6577 37.8329 17.9619 37.6251 18.6496 37.4241L29.2503 15.2578C29.5642 14.5629 30.3121 14.2337 31.0385 14.4329L42.8512 17.6727C43.3402 17.8068 43.7106 18.1692 43.878 18.6112L43.9684 17.3926C43.714 17.1716 43.4076 17.0032 43.0609 16.9081Z" fill="#41A7B3"/>
<path d="M39.848 12.2864L36.331 11.3218C35.8722 11.196 35.4061 11.397 35.1273 11.8138L33.6184 14.3184L34.5081 14.5213L35.8777 12.2251C35.9474 12.1209 36.0448 12.0654 36.1595 12.0969L39.6766 13.0615C39.7073 13.0699 39.7366 13.0839 39.7623 13.1019L40.206 12.4694C40.1007 12.3863 39.9799 12.3226 39.848 12.2864Z" fill="#41A7B3"/>
<path d="M16.4455 30.3389C17.4579 24.8191 18.3299 21.8561 22.0115 17.4929" stroke="#41A7B3" stroke-width="2"/>
<path d="M13.4455 27.3389C14.4777 23.1892 15.2255 20.9357 17.7396 17.4282" stroke="#41A7B3" stroke-width="2"/>
<path d="M49.6435 25.0305C50.1419 30.6202 50.0928 33.7084 47.7103 38.8964" stroke="#41A7B3" stroke-width="2"/>
<path d="M53.3357 27.1203C53.4491 31.395 53.3303 33.7662 51.8442 37.8178" stroke="#41A7B3" stroke-width="2"/>
<defs>
<filter id="filter0_d" x="0" y="0" width="68" height="68" filterUnits="userSpaceOnUse" color-interpolation-filters="sRGB">
<feFlood flood-opacity="0" result="BackgroundImageFix"/>
<feColorMatrix in="SourceAlpha" type="matrix" values="0 0 0 0 0 0 0 0 0 0 0 0 0 0 0 0 0 0 127 0"/>
<feOffset dy="4"/>
<feGaussianBlur stdDeviation="2"/>
<feColorMatrix type="matrix" values="0 0 0 0 0 0 0 0 0 0 0 0 0 0 0 0 0 0 0.25 0"/>
<feBlend mode="normal" in2="BackgroundImageFix" result="effect1_dropShadow"/>
<feBlend mode="normal" in="SourceGraphic" in2="effect1_dropShadow" result="shape"/>
</filter>
</defs>
</svg>
