<svg width="48" height="48" viewBox="0 0 48 48" fill="none" xmlns="http://www.w3.org/2000/svg">
<g filter="url(#filter0_d)">
<circle cx="24" cy="20" r="20" fill="white"/>
</g>
<path d="M24.0006 0C12.9552 0 4.00098 8.95446 4.00098 19.9995C4.00098 31.0445 12.9552 40 24.0004 40C35.0457 40 44.0006 31.0449 44.0006 19.9995C44.0006 8.95406 35.0458 0 24.0006 0ZM9.43181 27.533C9.43181 21.2852 14.9188 21.2865 16.1364 19.6529L16.2757 18.908C14.565 18.0407 13.3574 15.9509 13.3574 13.5061C13.3574 10.2855 15.4524 7.67432 18.036 7.67432C20.0704 7.67432 21.7967 9.2962 22.441 11.5567C19.8529 12.3792 17.9385 15.1853 17.9385 18.5211C17.9385 20.8176 18.8439 22.9291 20.3302 24.2706C20.0915 24.393 19.826 24.5178 19.5977 24.6247C18.3992 25.187 16.7379 25.9686 15.5393 27.533H9.43181V27.533ZM24.0614 32.5476V32.5473H23.9392H15.3964C15.3964 26.2998 20.8834 26.3015 22.101 24.6679L22.2403 23.923C20.5296 23.0556 19.322 20.9659 19.322 18.5211C19.322 15.3005 21.417 12.6893 24.0006 12.6893C26.5842 12.6893 28.6791 15.3005 28.6791 18.5211C28.6791 20.9448 27.493 23.0222 25.8051 23.9026L25.9638 24.7495C27.2997 26.3039 32.6041 26.4052 32.6041 32.5476H24.0614V32.5476ZM32.4613 27.5333V27.533C31.2624 25.9688 29.601 25.1874 28.4025 24.6251C28.1666 24.5144 27.9051 24.3916 27.6714 24.2716C29.1563 22.9284 30.0627 20.8124 30.0627 18.5211C30.0627 15.1857 28.149 12.3801 25.5617 11.5574C26.2055 9.29646 27.9318 7.67458 29.9666 7.67458C32.5505 7.67458 34.6452 10.2858 34.6452 13.5064C34.6452 15.9301 33.459 18.0072 31.7712 18.8879L31.9298 19.7348C33.2657 21.2889 38.5701 21.3901 38.5701 27.5333H32.4613Z" fill="#41A7B3"/>
<defs>
<filter id="filter0_d" x="0" y="0" width="48" height="48" filterUnits="userSpaceOnUse" color-interpolation-filters="sRGB">
<feFlood flood-opacity="0" result="BackgroundImageFix"/>
<feColorMatrix in="SourceAlpha" type="matrix" values="0 0 0 0 0 0 0 0 0 0 0 0 0 0 0 0 0 0 127 0"/>
<feOffset dy="4"/>
<feGaussianBlur stdDeviation="2"/>
<feColorMatrix type="matrix" values="0 0 0 0 0 0 0 0 0 0 0 0 0 0 0 0 0 0 0.25 0"/>
<feBlend mode="normal" in2="BackgroundImageFix" result="effect1_dropShadow"/>
<feBlend mode="normal" in="SourceGraphic" in2="effect1_dropShadow" result="shape"/>
</filter>
</defs>
</svg>
