<svg width="46" height="47" viewBox="0 0 46 47" fill="none" xmlns="http://www.w3.org/2000/svg">
<g filter="url(#filter0_d)">
<path d="M42 20C42 21.8362 36.726 24.4519 36.5 26.5C36.2278 28.9671 37.8966 31.836 36.5 33.5C34.9444 35.3534 31.591 33.3324 29 34C26.5547 34.63 25.3977 38.5 23 38.5C20.6502 38.5 19.0233 35.4572 17 34.5C15.1963 33.6467 11.045 34.656 9.5 33.5C7.53025 32.0262 9.79676 28.6291 9 26C8.40403 24.0334 4.5 21.937 4.5 20C4.5 17.6884 8.53975 16.8381 9.5 14.5C10.3648 12.3944 8.04024 7.78239 9.5 6C10.9059 4.28341 14.8589 6.67244 17 6C19.6037 5.18227 20.4856 1.5 23 1.5C25.4914 1.5 26.7289 4.9659 28.5 6.5C30.0331 7.82794 35.5771 4.73004 37 6C38.3016 7.1617 35.502 12.6589 36.5 14.5C37.7607 16.8255 42 17.5836 42 20Z" fill="white"/>
</g>
<path d="M40.9526 15.801L38.145 15.3247C37.8525 14.3805 37.4765 13.4697 37.0169 12.6007L38.6714 10.2861C39.3733 9.30013 39.2647 7.95483 38.404 7.10253L35.9139 4.61246C35.446 4.14453 34.8277 3.8855 34.1676 3.8855C33.6495 3.8855 33.1565 4.04426 32.7387 4.34508L30.4158 5.99955C29.5133 5.52326 28.5691 5.13053 27.5915 4.83807L27.1235 2.06391C26.923 0.869015 25.8952 0 24.6836 0H21.1658C19.9541 0 18.9264 0.869015 18.7258 2.06391L18.2412 4.90492C17.3053 5.19738 16.3945 5.58175 15.5255 6.04968L13.2276 4.39521C12.8098 4.0944 12.3085 3.93564 11.7904 3.93564C11.1303 3.93564 10.5036 4.19467 10.044 4.6626L7.54562 7.15266C6.69331 8.00497 6.57633 9.35027 7.27823 10.3363L8.94941 12.6843C8.48984 13.5616 8.12218 14.4724 7.83807 15.4167L5.06391 15.8846C3.86902 16.0851 3 17.1129 3 18.3245V21.8424C3 23.054 3.86902 24.0817 5.06391 24.2823L7.90492 24.7669C8.19738 25.7028 8.58175 26.6136 9.04968 27.4826L7.40357 29.7721C6.70167 30.7581 6.8103 32.1034 7.67096 32.9557L10.161 35.4458C10.6289 35.9137 11.2473 36.1728 11.9074 36.1728C12.4255 36.1728 12.9185 36.014 13.3363 35.7132L15.6843 34.042C16.5282 34.4849 17.414 34.8442 18.3247 35.1283L18.7927 37.9358C18.9932 39.1307 20.021 39.9998 21.2326 39.9998H24.7588C25.9704 39.9998 26.9982 39.1307 27.1987 37.9358L27.675 35.1283C28.6192 34.8358 29.53 34.4598 30.399 34.0002L32.7136 35.6547C33.1314 35.9555 33.6328 36.1143 34.1508 36.1143C34.811 36.1143 35.4293 35.8552 35.8972 35.3873L38.3873 32.8972C39.2396 32.0449 39.3566 30.6996 38.6547 29.7136L37.0002 27.3907C37.4598 26.5133 37.8442 25.6025 38.1283 24.6667L40.9358 24.1987C42.1307 23.9982 42.9998 22.9704 42.9998 21.7588V18.241C43.0165 17.0294 42.1475 16.0016 40.9526 15.801ZM40.7604 21.7588C40.7604 21.8674 40.6852 21.9593 40.5765 21.9761L37.0671 22.561C36.6242 22.6362 36.2732 22.9621 36.1646 23.3882C35.8471 24.6165 35.3625 25.7947 34.7107 26.8893C34.4851 27.2737 34.5018 27.75 34.7608 28.1177L36.8247 31.0255C36.8832 31.1091 36.8749 31.2344 36.7997 31.3096L34.3096 33.7997C34.2511 33.8582 34.1926 33.8665 34.1508 33.8665C34.1007 33.8665 34.0589 33.8498 34.0255 33.8247L31.126 31.7608C30.7667 31.5018 30.2821 31.4851 29.8977 31.7107C28.8031 32.3625 27.6249 32.8471 26.3966 33.1646C25.9621 33.2732 25.6362 33.6326 25.5693 34.0671L24.9761 37.5765C24.9593 37.6852 24.8674 37.7604 24.7588 37.7604H21.241C21.1323 37.7604 21.0404 37.6852 21.0237 37.5765L20.4388 34.0671C20.3636 33.6242 20.0377 33.2732 19.6116 33.1646C18.4167 32.8555 17.2635 32.3792 16.1856 31.7608C16.0102 31.6606 15.8096 31.6104 15.6174 31.6104C15.3918 31.6104 15.1579 31.6773 14.9657 31.8193L12.0411 33.8999C11.9993 33.925 11.9575 33.9417 11.9158 33.9417C11.8823 33.9417 11.8155 33.9334 11.757 33.8749L9.26694 31.3848C9.19173 31.3096 9.18338 31.1926 9.24187 31.1007L11.2974 28.2179C11.5565 27.8503 11.5732 27.3656 11.3476 26.9812C10.6958 25.895 10.1944 24.7168 9.87692 23.4885C9.75993 23.0623 9.40899 22.7364 8.97448 22.6612L5.43993 22.0596C5.3313 22.0429 5.2561 21.951 5.2561 21.8424V18.3245C5.2561 18.2159 5.3313 18.124 5.43993 18.1073L8.92434 17.5224C9.36721 17.4471 9.72651 17.1213 9.83514 16.6868C10.1443 15.4584 10.6206 14.2719 11.264 13.1773C11.4896 12.7929 11.4645 12.3166 11.2055 11.9573L9.12489 9.03274C9.06639 8.94918 9.07475 8.82384 9.14995 8.74864L11.64 6.25858C11.6985 6.20009 11.757 6.19173 11.7988 6.19173C11.8489 6.19173 11.8907 6.20844 11.9241 6.23351L14.8069 8.28907C15.1746 8.5481 15.6592 8.56481 16.0436 8.3392C17.1299 7.68744 18.308 7.18609 19.5364 6.86856C19.9625 6.75158 20.2884 6.40063 20.3636 5.96612L20.9652 2.43157C20.9819 2.32294 21.0738 2.24774 21.1825 2.24774H24.7003C24.8089 2.24774 24.9008 2.32294 24.9176 2.43157L25.5025 5.91599C25.5777 6.35885 25.9036 6.71815 26.3381 6.82678C27.5998 7.14431 28.8031 7.63731 29.9228 8.29742C30.3071 8.52303 30.7834 8.50632 31.1511 8.24729L34.0339 6.17502C34.0756 6.14995 34.1174 6.13324 34.1592 6.13324C34.1926 6.13324 34.2595 6.1416 34.318 6.20009L36.808 8.69015C36.8832 8.76535 36.8916 8.88234 36.8331 8.97425L34.7692 11.8738C34.5102 12.2331 34.4934 12.7177 34.7191 13.1021C35.3708 14.1967 35.8555 15.3749 36.173 16.6032C36.2816 17.0377 36.6409 17.3636 37.0754 17.4304L40.5849 18.0237C40.6935 18.0404 40.7687 18.1323 40.7687 18.241V21.7588H40.7604V21.7588Z" fill="white"/>
<g clip-path="url(#clip0)">
<path d="M22.942 19.8213C22.9586 19.8213 22.9751 19.8213 22.995 19.8213C23.0016 19.8213 23.0083 19.8213 23.0149 19.8213C23.0248 19.8213 23.0381 19.8213 23.048 19.8213C24.0188 19.8047 24.8041 19.4634 25.3839 18.8107C26.6595 17.3727 26.4475 14.9076 26.4243 14.6724C26.3415 12.9064 25.5065 12.0615 24.8173 11.6672C24.3038 11.3723 23.7041 11.2133 23.0348 11.2H23.0116C23.0083 11.2 23.0016 11.2 22.9983 11.2H22.9784C22.6107 11.2 21.8884 11.2597 21.1959 11.6539C20.5001 12.0482 19.6519 12.8931 19.569 14.6724C19.5459 14.9076 19.3338 17.3727 20.6094 18.8107C21.1859 19.4634 21.9712 19.8047 22.942 19.8213ZM20.4537 14.7552C20.4537 14.7453 20.457 14.7353 20.457 14.7287C20.5664 12.353 22.2528 12.0979 22.9751 12.0979H22.9884C22.995 12.0979 23.005 12.0979 23.0149 12.0979C23.9095 12.1178 25.4303 12.4823 25.533 14.7287C25.533 14.7386 25.533 14.7486 25.5363 14.7552C25.5396 14.7784 25.7716 17.0314 24.7179 18.2176C24.3005 18.6881 23.7438 18.92 23.0116 18.9267C23.005 18.9267 23.0016 18.9267 22.995 18.9267C22.9884 18.9267 22.9851 18.9267 22.9784 18.9267C22.2495 18.92 21.6896 18.6881 21.2754 18.2176C20.2251 17.0381 20.4504 14.7751 20.4537 14.7552Z" fill="#41A7B3"/>
<path d="M20.4537 14.7552C20.4537 14.7453 20.457 14.7353 20.457 14.7287C20.5664 12.353 22.2528 12.0979 22.9751 12.0979H22.9884H23.0149C23.9095 12.1178 25.4303 12.4823 25.533 14.7287C25.533 14.7386 25.533 14.7486 25.5363 14.7552C25.5396 14.7784 25.7716 17.0314 24.7179 18.2176C24.3005 18.6881 23.7438 18.92 23.0116 18.9267H22.995H22.9784C22.2495 18.92 21.6896 18.6881 21.2754 18.2176C20.2251 17.0381 20.4504 14.7751 20.4537 14.7552Z" fill="#41A7B3"/>
<path d="M29.8039 23.9099C29.8039 23.9065 29.8039 23.9032 29.8039 23.8999C29.8039 23.8734 29.8006 23.8469 29.8006 23.8171C29.7807 23.161 29.7376 21.627 28.2996 21.1366C28.2897 21.1333 28.2764 21.13 28.2665 21.1267C26.7722 20.7456 25.5297 19.8842 25.5165 19.8742C25.3143 19.7318 24.8935 19.9836 24.8935 19.9836C24.8935 19.9836 24.8008 20.464 25.0029 20.6065C25.0592 20.6462 26.3779 21.564 28.0279 21.9881C28.7999 22.2631 28.8861 23.0882 28.9093 23.8436C28.9093 23.8734 28.9093 23.8999 28.9126 23.9264C28.9159 24.2246 28.896 24.6852 28.843 24.9502C28.3063 25.2551 26.2023 26.3087 23.0016 26.3087C19.8142 26.3087 17.697 25.2518 17.157 24.9469C17.1039 24.6819 17.0807 24.2213 17.0874 23.9231C17.0874 23.8966 17.0907 23.8701 17.0907 23.8403C17.1139 23.0848 17.2 22.2598 17.972 21.9848C19.6221 21.5607 20.9408 20.6396 20.9971 20.6032C21.1992 20.4607 21.1064 19.9803 21.1064 19.9803C20.9646 19.7781 20.6856 19.7284 20.4835 19.8709C20.4703 19.8809 19.2344 20.7423 17.7335 21.1234C17.7202 21.1267 17.7103 21.13 17.7003 21.1333C16.2624 21.627 16.2193 23.161 16.1994 23.8138C16.1994 23.8436 16.1994 23.8701 16.1961 23.8966C16.1961 23.8999 16.1961 23.9032 16.1961 23.9065C16.1928 24.0788 16.1895 24.9635 16.3651 25.4075C16.3982 25.4936 16.4578 25.5665 16.5374 25.6162C16.6368 25.6825 19.019 27.2 23.005 27.2C26.9909 27.2 29.3732 25.6792 29.4726 25.6162C29.5488 25.5665 29.6117 25.4936 29.6448 25.4075C29.8105 24.9668 29.8072 24.0821 29.8039 23.9099Z" fill="#41A7B3"/>
<path d="M25.0029 20.6065C24.8008 20.464 24.8935 19.9836 24.8935 19.9836L21.1064 19.9803C21.1064 19.9803 21.1992 20.4607 20.9971 20.6032C20.9408 20.6396 19.6221 21.5607 17.972 21.9848C17.2 22.2598 17.1139 23.0848 17.0907 23.8403C17.0907 23.8701 17.0874 23.8966 17.0874 23.9231C17.0807 24.2213 17.1039 24.6819 17.157 24.9469C17.697 25.2518 19.8142 26.3087 23.0016 26.3087C26.2023 26.3087 28.3063 25.2551 28.843 24.9502C28.896 24.6852 28.9159 24.2246 28.9126 23.9264C28.9093 23.8999 28.9093 23.8734 28.9093 23.8436C28.8861 23.0882 28.7999 22.2631 28.0279 21.9881C26.3779 21.564 25.0592 20.6462 25.0029 20.6065Z" fill="#41A7B3"/>
</g>
<defs>
<filter id="filter0_d" x="0.5" y="1.5" width="45.5" height="45" filterUnits="userSpaceOnUse" color-interpolation-filters="sRGB">
<feFlood flood-opacity="0" result="BackgroundImageFix"/>
<feColorMatrix in="SourceAlpha" type="matrix" values="0 0 0 0 0 0 0 0 0 0 0 0 0 0 0 0 0 0 127 0"/>
<feOffset dy="4"/>
<feGaussianBlur stdDeviation="2"/>
<feColorMatrix type="matrix" values="0 0 0 0 0 0 0 0 0 0 0 0 0 0 0 0 0 0 0.25 0"/>
<feBlend mode="normal" in2="BackgroundImageFix" result="effect1_dropShadow"/>
<feBlend mode="normal" in="SourceGraphic" in2="effect1_dropShadow" result="shape"/>
</filter>
<clipPath id="clip0">
<rect width="16" height="16" fill="white" transform="translate(15 11.2)"/>
</clipPath>
</defs>
</svg>
