<svg width="48" height="48" viewBox="0 0 48 48" fill="none" xmlns="http://www.w3.org/2000/svg">
<g filter="url(#filter0_d)">
<circle cx="24" cy="20" r="20" fill="#41A7B3"/>
</g>
<path d="M26.3698 9.1692C26.2424 9.13425 26.1265 9.15726 26.1055 9.23372C26.0846 9.31018 26.1725 9.38911 26.3 9.42406C26.4274 9.45901 26.5433 9.43599 26.5643 9.35953C26.5852 9.28308 26.4973 9.20415 26.3698 9.1692Z" fill="white"/>
<path fill-rule="evenodd" clip-rule="evenodd" d="M27.9023 8.87702C27.9233 8.80056 27.8608 8.72862 27.7844 8.70765L25.4397 8.06459C25.3632 8.04362 25.2982 8.08062 25.2518 8.15008L24.3387 9.68085L27.9068 10.6594L27.9023 8.87702ZM26.1671 9.90829C25.7594 9.79645 25.5049 9.42524 25.6028 9.06844C25.7007 8.71163 26.1089 8.52216 26.5166 8.63399C26.9244 8.74583 27.1718 9.14253 27.081 9.47384C26.9831 9.83065 26.5749 10.0201 26.1671 9.90829Z" fill="white"/>
<path d="M28.5277 28.7786C28.7825 28.8485 29.0164 28.9949 29.2108 29.1852L30.6456 12.8629C30.6949 12.3832 30.385 11.9146 29.9008 11.7818L22.0256 9.62192C21.5414 9.48912 21.0428 9.7086 20.8335 10.1719L13.7664 24.9494C14.0052 24.8779 14.281 24.8713 14.5614 24.9482L28.5277 28.7786Z" fill="white"/>
<path d="M14.4286 25.4324L28.3949 29.2628C28.9046 29.4026 29.2075 29.8968 29.0932 30.4135C29.0048 30.6359 28.8724 30.8188 28.6706 30.9552C28.4038 31.1287 28.0815 31.2047 27.7502 31.1139L14.0388 27.3533C13.7329 27.2695 13.462 27.0582 13.328 26.7474C13.2241 26.527 13.2035 26.3022 13.2409 26.0658C13.3992 25.5886 13.9188 25.2926 14.4286 25.4324Z" fill="white"/>
<path fill-rule="evenodd" clip-rule="evenodd" d="M30.1546 30.3956C30.1501 30.4352 30.1458 30.4722 30.1361 30.5077L30.1731 30.5726L30.1172 30.7765C29.8236 31.8469 28.6869 32.4943 27.6165 32.2007L13.6247 28.3633C12.5543 28.0697 11.907 26.9331 12.2005 25.8627L12.2145 25.8117C12.2495 25.6843 12.2914 25.5314 12.3588 25.3854L19.8445 9.68139C20.2815 8.78734 21.3183 8.3044 22.2867 8.57001L23.51 8.90552L24.3092 7.59015C24.6344 7.10387 25.1586 6.89138 25.6938 7.03817L28.0385 7.68123C28.5737 7.82801 28.9531 8.34311 28.9407 8.88778L28.957 10.4268L30.1804 10.7623C31.1743 11.0349 31.8012 11.9467 31.714 12.9641L30.1805 30.2458C30.1655 30.3005 30.1599 30.3498 30.1546 30.3956ZM13.7645 27.8536L27.7563 31.691C28.5464 31.9077 29.3838 31.4523 29.6074 30.6367C29.5889 30.6042 29.5704 30.5718 29.5774 30.5463C29.6054 30.4443 29.6403 30.3169 29.6428 30.208L31.1763 12.9263C31.2446 12.1777 30.7797 11.4748 30.0406 11.2721L28.435 10.8317L28.4215 8.8824C28.4219 8.58108 28.2045 8.27482 27.8987 8.19095L25.554 7.54788C25.2481 7.46401 24.9374 7.598 24.7515 7.87587L23.7456 9.54557L22.1399 9.10521C21.4008 8.90251 20.6424 9.26996 20.3193 9.94862L12.8406 25.6272C12.7871 25.7221 12.7522 25.8496 12.7242 25.9515L12.7103 26.0025C12.4936 26.7925 12.949 27.6299 13.7645 27.8536Z" fill="white"/>
<path fill-rule="evenodd" clip-rule="evenodd" d="M25.6028 9.06844C25.5049 9.42524 25.7594 9.79645 26.1671 9.90829C26.5749 10.0201 26.9831 9.83065 27.081 9.47384C27.1718 9.14253 26.9244 8.74583 26.5166 8.63399C26.1089 8.52216 25.7007 8.71163 25.6028 9.06844ZM26.3698 9.1692C26.2424 9.13425 26.1265 9.15726 26.1055 9.23372C26.0846 9.31018 26.1725 9.38911 26.3 9.42406C26.4274 9.45901 26.5433 9.43599 26.5643 9.35953C26.5852 9.28308 26.4973 9.20415 26.3698 9.1692Z" fill="white"/>
<defs>
<filter id="filter0_d" x="0" y="0" width="48" height="48" filterUnits="userSpaceOnUse" color-interpolation-filters="sRGB">
<feFlood flood-opacity="0" result="BackgroundImageFix"/>
<feColorMatrix in="SourceAlpha" type="matrix" values="0 0 0 0 0 0 0 0 0 0 0 0 0 0 0 0 0 0 127 0"/>
<feOffset dy="4"/>
<feGaussianBlur stdDeviation="2"/>
<feColorMatrix type="matrix" values="0 0 0 0 0 0 0 0 0 0 0 0 0 0 0 0 0 0 0.25 0"/>
<feBlend mode="normal" in2="BackgroundImageFix" result="effect1_dropShadow"/>
<feBlend mode="normal" in="SourceGraphic" in2="effect1_dropShadow" result="shape"/>
</filter>
</defs>
</svg>
