<svg width="36" height="36" viewBox="0 0 36 36" fill="none" xmlns="http://www.w3.org/2000/svg">
<g filter="url(#filter0_ddd)">
<circle cx="18" cy="17" r="15" fill="white"/>
</g>
<g clip-path="url(#clip0)">
<path d="M17.9275 17.7766C17.9482 17.7766 17.9689 17.7766 17.9938 17.7766C18.0021 17.7766 18.0104 17.7766 18.0186 17.7766C18.0311 17.7766 18.0476 17.7766 18.0601 17.7766C19.2736 17.7559 20.2551 17.3293 20.9799 16.5134C22.5745 14.7159 22.3094 11.6345 22.2804 11.3404C22.1769 9.13295 21.1332 8.07683 20.2717 7.58397C19.6297 7.21537 18.8801 7.01657 18.0435 7H18.0145C18.0104 7 18.0021 7 17.9979 7H17.9731C17.5134 7 16.6105 7.07455 15.7449 7.56741C14.8751 8.06026 13.8149 9.11638 13.7113 11.3404C13.6823 11.6345 13.4173 14.7159 15.0118 16.5134C15.7325 17.3293 16.714 17.7559 17.9275 17.7766ZM14.8171 11.444C14.8171 11.4316 14.8213 11.4191 14.8213 11.4109C14.958 8.44129 17.0661 8.12239 17.9689 8.12239H17.9855C17.9938 8.12239 18.0062 8.12239 18.0186 8.12239C19.1369 8.14724 21.0379 8.60282 21.1663 11.4109C21.1663 11.4233 21.1663 11.4357 21.1704 11.444C21.1746 11.473 21.4645 14.2893 20.1475 15.772C19.6256 16.3601 18.9298 16.65 18.0145 16.6583C18.0062 16.6583 18.0021 16.6583 17.9938 16.6583C17.9855 16.6583 17.9814 16.6583 17.9731 16.6583C17.0619 16.65 16.362 16.3601 15.8443 15.772C14.5314 14.2976 14.813 11.4688 14.8171 11.444Z" fill="#41A7B3"/>
<path d="M14.8171 11.444C14.8171 11.4316 14.8213 11.4191 14.8213 11.4109C14.958 8.44129 17.0661 8.12239 17.9689 8.12239H17.9855H18.0186C19.1369 8.14724 21.0379 8.60282 21.1663 11.4109C21.1663 11.4233 21.1663 11.4357 21.1704 11.444C21.1746 11.473 21.4645 14.2893 20.1475 15.772C19.6256 16.3601 18.9298 16.65 18.0145 16.6583H17.9938H17.9731C17.0619 16.65 16.362 16.3601 15.8443 15.772C14.5314 14.2976 14.813 11.4688 14.8171 11.444Z" fill="#41A7B3"/>
<path d="M26.5049 22.8874C26.5049 22.8832 26.5049 22.8791 26.5049 22.8749C26.5049 22.8418 26.5007 22.8087 26.5007 22.7714C26.4759 21.9513 26.422 20.0338 24.6246 19.4208C24.6121 19.4166 24.5956 19.4125 24.5832 19.4084C22.7153 18.9321 21.1622 17.8552 21.1456 17.8428C20.893 17.6647 20.5451 17.7269 20.367 17.9795C20.1889 18.2321 20.251 18.58 20.5036 18.7581C20.574 18.8078 22.2224 19.9551 24.285 20.4852C25.25 20.8289 25.3576 21.8602 25.3866 22.8045C25.3866 22.8418 25.3866 22.8749 25.3908 22.9081C25.3949 23.2808 25.3701 23.8565 25.3038 24.1878C24.6329 24.5689 22.0029 25.8859 18.0021 25.8859C14.0178 25.8859 11.3713 24.5647 10.6962 24.1837C10.63 23.8524 10.601 23.2767 10.6092 22.9039C10.6092 22.8708 10.6134 22.8377 10.6134 22.8004C10.6424 21.8561 10.7501 20.8248 11.7151 20.4811C13.7776 19.9509 15.426 18.7995 15.4964 18.754C15.749 18.5759 15.8112 18.228 15.6331 17.9754C15.455 17.7227 15.1071 17.6606 14.8544 17.8387C14.8379 17.8511 13.293 18.9279 11.4169 19.4042C11.4003 19.4084 11.3879 19.4125 11.3755 19.4166C9.57798 20.0338 9.52414 21.9513 9.49929 22.7672C9.49929 22.8045 9.49929 22.8377 9.49515 22.8708C9.49515 22.8749 9.49515 22.8791 9.49515 22.8832C9.491 23.0986 9.48686 24.2044 9.70637 24.7594C9.74779 24.8671 9.82234 24.9582 9.92174 25.0203C10.046 25.1031 13.0238 27 18.0062 27C22.9886 27 25.9665 25.099 26.0907 25.0203C26.186 24.9582 26.2647 24.8671 26.3061 24.7594C26.5132 24.2085 26.509 23.1027 26.5049 22.8874Z" fill="#41A7B3"/>
<path d="M20.5036 18.7581C20.251 18.58 20.1889 18.2321 20.367 17.9795L15.6331 17.9754C15.8112 18.228 15.749 18.5759 15.4964 18.754C15.426 18.7995 13.7776 19.9509 11.7151 20.4811C10.7501 20.8248 10.6424 21.8561 10.6134 22.8004C10.6134 22.8377 10.6092 22.8708 10.6092 22.9039C10.601 23.2767 10.63 23.8524 10.6962 24.1837C11.3713 24.5647 14.0178 25.8859 18.0021 25.8859C22.0029 25.8859 24.6329 24.5689 25.3038 24.1878C25.3701 23.8565 25.3949 23.2808 25.3908 22.9081C25.3866 22.8749 25.3866 22.8418 25.3866 22.8045C25.3576 21.8602 25.25 20.8289 24.285 20.4852C22.2224 19.9551 20.574 18.8078 20.5036 18.7581Z" fill="#41A7B3"/>
</g>
<defs>
<filter id="filter0_ddd" x="0" y="0" width="36" height="36" filterUnits="userSpaceOnUse" color-interpolation-filters="sRGB">
<feFlood flood-opacity="0" result="BackgroundImageFix"/>
<feColorMatrix in="SourceAlpha" type="matrix" values="0 0 0 0 0 0 0 0 0 0 0 0 0 0 0 0 0 0 127 0"/>
<feOffset dy="1"/>
<feGaussianBlur stdDeviation="1.5"/>
<feColorMatrix type="matrix" values="0 0 0 0 0 0 0 0 0 0 0 0 0 0 0 0 0 0 0.2 0"/>
<feBlend mode="normal" in2="BackgroundImageFix" result="effect1_dropShadow"/>
<feColorMatrix in="SourceAlpha" type="matrix" values="0 0 0 0 0 0 0 0 0 0 0 0 0 0 0 0 0 0 127 0"/>
<feOffset dy="2"/>
<feGaussianBlur stdDeviation="1"/>
<feColorMatrix type="matrix" values="0 0 0 0 0 0 0 0 0 0 0 0 0 0 0 0 0 0 0.2 0"/>
<feBlend mode="normal" in2="effect1_dropShadow" result="effect2_dropShadow"/>
<feColorMatrix in="SourceAlpha" type="matrix" values="0 0 0 0 0 0 0 0 0 0 0 0 0 0 0 0 0 0 127 0"/>
<feOffset/>
<feGaussianBlur stdDeviation="1"/>
<feColorMatrix type="matrix" values="0 0 0 0 0 0 0 0 0 0 0 0 0 0 0 0 0 0 0.14 0"/>
<feBlend mode="normal" in2="effect2_dropShadow" result="effect3_dropShadow"/>
<feBlend mode="normal" in="SourceGraphic" in2="effect3_dropShadow" result="shape"/>
</filter>
<clipPath id="clip0">
<rect width="20" height="20" fill="white" transform="translate(8 7)"/>
</clipPath>
</defs>
</svg>
