<svg width="18" height="20" viewBox="0 0 18 20" fill="none" xmlns="http://www.w3.org/2000/svg">
<path d="M15 14.0625C15.8125 14.0625 16.5 14.3594 17.0625 14.9531C17.625 15.5156 17.9062 16.1875 17.9062 16.9688C17.9062 17.7812 17.6094 18.4844 17.0156 19.0781C16.4531 19.6406 15.7812 19.9219 15 19.9219C14.2188 19.9219 13.5312 19.6406 12.9375 19.0781C12.375 18.4844 12.0938 17.7812 12.0938 16.9688C12.0938 16.6562 12.1094 16.4375 12.1406 16.3125L5.0625 12.1875C4.46875 12.7188 3.78125 12.9844 3 12.9844C2.1875 12.9844 1.48438 12.6875 0.890625 12.0938C0.296875 11.5 0 10.7969 0 9.98438C0 9.17188 0.296875 8.46875 0.890625 7.875C1.48438 7.28125 2.1875 6.98438 3 6.98438C3.78125 6.98438 4.46875 7.25 5.0625 7.78125L12.0938 3.70312C12.0312 3.39062 12 3.15625 12 3C12 2.1875 12.2969 1.48438 12.8906 0.890625C13.4844 0.296875 14.1875 0 15 0C15.8125 0 16.5156 0.296875 17.1094 0.890625C17.7031 1.48438 18 2.1875 18 3C18 3.8125 17.7031 4.51562 17.1094 5.10938C16.5156 5.70312 15.8125 6 15 6C14.25 6 13.5625 5.71875 12.9375 5.15625L5.90625 9.28125C5.96875 9.59375 6 9.82812 6 9.98438C6 10.1406 5.96875 10.375 5.90625 10.6875L13.0312 14.8125C13.5938 14.3125 14.25 14.0625 15 14.0625Z" fill="#41A7B3"/>
</svg>
