<svg width="58" height="58" viewBox="0 0 58 58" fill="none" xmlns="http://www.w3.org/2000/svg">
<g filter="url(#filter0_d)">
<circle cx="29" cy="25" r="25" fill="#FF83A6"/>
</g>
<g clip-path="url(#clip0)">
<path d="M16.1067 14.7096C16.308 14.2488 16.6563 14.0183 17.1534 14.0181H39.8472C40.3435 14.0181 40.6924 14.2488 40.8933 14.7096C41.0941 15.194 41.0115 15.608 40.645 15.9507L31.904 24.6914V33.3081C31.904 33.6158 31.7916 33.8814 31.5671 34.1063L27.0286 38.6448C26.8156 38.8692 26.5498 38.9819 26.2305 38.9819C26.0888 38.9819 25.9411 38.9521 25.7874 38.893C25.3263 38.692 25.0956 38.3434 25.0956 37.847V24.6915L16.355 15.9507C15.9883 15.6081 15.9059 15.1942 16.1067 14.7096Z" fill="white"/>
</g>
<defs>
<filter id="filter0_d" x="0" y="0" width="58" height="58" filterUnits="userSpaceOnUse" color-interpolation-filters="sRGB">
<feFlood flood-opacity="0" result="BackgroundImageFix"/>
<feColorMatrix in="SourceAlpha" type="matrix" values="0 0 0 0 0 0 0 0 0 0 0 0 0 0 0 0 0 0 127 0"/>
<feOffset dy="4"/>
<feGaussianBlur stdDeviation="2"/>
<feColorMatrix type="matrix" values="0 0 0 0 0 0 0 0 0 0 0 0 0 0 0 0 0 0 0.25 0"/>
<feBlend mode="normal" in2="BackgroundImageFix" result="effect1_dropShadow"/>
<feBlend mode="normal" in="SourceGraphic" in2="effect1_dropShadow" result="shape"/>
</filter>
<clipPath id="clip0">
<rect width="25" height="25" fill="white" transform="matrix(-1 0 0 1 41 14)"/>
</clipPath>
</defs>
</svg>
