<svg width="50" height="50" viewBox="0 0 50 50" fill="none" xmlns="http://www.w3.org/2000/svg">
<g clip-path="url(#clip0)">
<path d="M47.4407 19.7523L43.9312 19.1569C43.5656 17.9767 43.0956 16.8382 42.5211 15.7519L44.5892 12.8587C45.4666 11.6262 45.3308 9.94454 44.255 8.87916L41.1424 5.76659C40.5575 5.18167 39.7846 4.85788 38.9594 4.85788C38.3119 4.85788 37.6956 5.05633 37.1734 5.43235L34.2697 7.50044C33.1416 6.90508 31.9614 6.41417 30.7393 6.0486L30.1544 2.58089C29.9037 1.08728 28.619 0.00100708 27.1045 0.00100708H22.7072C21.1927 0.00100708 19.908 1.08728 19.6573 2.58089L19.0515 6.13216C17.8817 6.49773 16.7432 6.97819 15.6569 7.56311L12.7845 5.49502C12.2623 5.119 11.6356 4.92055 10.988 4.92055C10.1629 4.92055 9.37951 5.24434 8.80504 5.82926L5.68202 8.94183C4.61664 10.0072 4.47041 11.6888 5.34778 12.9213L7.43676 15.8563C6.86229 16.9531 6.40272 18.0916 6.04759 19.2718L2.57989 19.8567C1.08627 20.1074 0 21.3921 0 22.9066V27.3039C0 28.8185 1.08627 30.1032 2.57989 30.3539L6.13115 30.9597C6.49672 32.1295 6.97719 33.268 7.5621 34.3542L5.50446 37.2161C4.62709 38.4486 4.76287 40.1303 5.83869 41.1956L8.95127 44.3082C9.53618 44.8931 10.3091 45.2169 11.1343 45.2169C11.7818 45.2169 12.3981 45.0185 12.9203 44.6425L15.8553 42.5535C16.9103 43.1071 18.0174 43.5562 19.1559 43.9113L19.7408 47.4208C19.9915 48.9144 21.2762 50.0007 22.7907 50.0007H27.1985C28.713 50.0007 29.9977 48.9144 30.2484 47.4208L30.8438 43.9113C32.024 43.5457 33.1625 43.0757 34.2488 42.5013L37.142 44.5693C37.6643 44.9454 38.291 45.1438 38.9385 45.1438C39.7637 45.1438 40.5366 44.82 41.1215 44.2351L44.2341 41.1225C45.2995 40.0572 45.4457 38.3755 44.5683 37.143L42.5003 34.2394C43.0747 33.1426 43.5552 32.0041 43.9103 30.8343L47.4198 30.2494C48.9134 29.9987 49.9997 28.714 49.9997 27.1995V22.8022C50.0206 21.2877 48.9343 20.003 47.4407 19.7523ZM47.2005 27.1995C47.2005 27.3353 47.1065 27.4502 46.9707 27.4711L42.5838 28.2022C42.0302 28.2962 41.5916 28.7036 41.4558 29.2363C41.0589 30.7717 40.4531 32.2444 39.6384 33.6127C39.3563 34.0931 39.3772 34.6885 39.701 35.1481L42.2809 38.7829C42.354 38.8873 42.3436 39.044 42.2496 39.138L39.137 42.2506C39.0639 42.3237 38.9908 42.3341 38.9385 42.3341C38.8759 42.3341 38.8237 42.3133 38.7819 42.2819L35.1575 39.702C34.7084 39.3782 34.1026 39.3573 33.6221 39.6394C32.2538 40.4541 30.7811 41.0599 29.2457 41.4568C28.7026 41.5926 28.2952 42.0417 28.2116 42.5848L27.4701 46.9717C27.4492 47.1075 27.3343 47.2015 27.1985 47.2015H22.8012C22.6654 47.2015 22.5505 47.1075 22.5296 46.9717L21.7985 42.5848C21.7045 42.0312 21.2971 41.5926 20.7644 41.4568C19.2708 41.0703 17.8294 40.475 16.482 39.702C16.2627 39.5767 16.012 39.514 15.7718 39.514C15.4898 39.514 15.1973 39.5976 14.9571 39.7751L11.3014 42.3759C11.2491 42.4073 11.1969 42.4281 11.1447 42.4281C11.1029 42.4281 11.0194 42.4177 10.9462 42.3446L7.83367 39.232C7.73966 39.138 7.72922 38.9918 7.80233 38.8769L10.3718 35.2734C10.6956 34.8138 10.7165 34.208 10.4344 33.7276C9.61974 32.3697 8.99305 30.897 8.59614 29.3616C8.44992 28.8289 8.01123 28.4215 7.4681 28.3275L3.04991 27.5755C2.91412 27.5546 2.82012 27.4397 2.82012 27.3039V22.9066C2.82012 22.7709 2.91412 22.656 3.04991 22.6351L7.40543 21.9039C7.95901 21.8099 8.40814 21.4026 8.54392 20.8595C8.93038 19.3241 9.52574 17.8409 10.33 16.4726C10.612 15.9921 10.5807 15.3968 10.2569 14.9476L7.6561 11.2919C7.58299 11.1875 7.59343 11.0308 7.68744 10.9368L10.8 7.82423C10.8731 7.75112 10.9462 7.74067 10.9985 7.74067C11.0611 7.74067 11.1134 7.76156 11.1551 7.79289L14.7586 10.3623C15.2182 10.6861 15.824 10.707 16.3045 10.425C17.6623 9.61031 19.135 8.98361 20.6704 8.58671C21.2031 8.44048 21.6105 8.00179 21.7045 7.45866L22.4565 3.04047C22.4774 2.90469 22.5923 2.81068 22.7281 2.81068H27.1254C27.2612 2.81068 27.3761 2.90469 27.3969 3.04047L28.1281 7.39599C28.2221 7.94957 28.6294 8.3987 29.1726 8.53448C30.7498 8.93139 32.2538 9.54764 33.6534 10.3728C34.1339 10.6548 34.7293 10.6339 35.1888 10.3101L38.7923 7.71978C38.8445 7.68845 38.8968 7.66756 38.949 7.66756C38.9908 7.66756 39.0743 7.678 39.1474 7.75111L42.26 10.8637C42.354 10.9577 42.3645 11.1039 42.2914 11.2188L39.7115 14.8432C39.3877 15.2923 39.3668 15.8981 39.6488 16.3786C40.4635 17.7469 41.0693 19.2196 41.4662 20.755C41.602 21.2981 42.0511 21.7055 42.5943 21.789L46.9811 22.5306C47.1169 22.5515 47.2109 22.6664 47.2109 22.8022V27.1995H47.2005V27.1995Z" fill="#FF83A6"/>
<path d="M25.0049 14.2052C19.0513 14.2052 14.2153 19.0412 14.2153 24.9948C14.2153 30.9483 19.0513 35.7843 25.0049 35.7843C30.9585 35.7843 35.7945 30.9483 35.7945 24.9948C35.7945 19.0412 30.9585 14.2052 25.0049 14.2052ZM25.0049 32.9642C20.6076 32.9642 17.0355 29.3921 17.0355 24.9948C17.0355 20.5975 20.6076 17.0253 25.0049 17.0253C29.4022 17.0253 32.9744 20.5975 32.9744 24.9948C32.9744 29.3921 29.4022 32.9642 25.0049 32.9642Z" fill="#FF83A6"/>
</g>
<defs>
<clipPath id="clip0">
<rect width="50" height="50" fill="white"/>
</clipPath>
</defs>
</svg>
