<svg width="58" height="58" viewBox="0 0 58 58" fill="none" xmlns="http://www.w3.org/2000/svg">
<g filter="url(#filter0_d)">
<circle cx="29" cy="25" r="25" fill="white"/>
</g>
<g clip-path="url(#clip0)">
<path d="M29.0001 0C15.1936 0 4.00098 11.1935 4.00098 24.9995C4.00098 38.8055 15.1936 50 29.0001 50C42.8066 50 54.0006 38.8062 54.0006 24.9995C54.0006 11.1928 42.8066 0 29.0001 0ZM40.8845 17.9908L38.51 20.3653L33.6765 15.5322L31.8428 17.3658L36.6763 22.1993L24.821 34.0537L19.9878 29.221L18.1541 31.0547L22.9873 35.8878L21.806 37.0692L21.7835 37.0467C21.6525 37.2623 21.4395 37.4197 21.1865 37.4758L16.6793 38.4808C16.6118 38.496 16.5431 38.5033 16.4753 38.5033C16.2293 38.5033 15.9903 38.4065 15.8131 38.2288C15.5858 38.0023 15.4911 37.6752 15.5611 37.3617L16.5656 32.8558C16.6223 32.603 16.78 32.3895 16.9953 32.2588L16.9725 32.236L36.0508 13.1568C36.3305 12.8777 36.7848 12.8777 37.0645 13.1577L40.8848 16.9772C41.1645 17.2568 41.1645 17.7112 40.8845 17.9908Z" fill="#FF83A6"/>
</g>
<defs>
<filter id="filter0_d" x="0" y="0" width="58" height="58" filterUnits="userSpaceOnUse" color-interpolation-filters="sRGB">
<feFlood flood-opacity="0" result="BackgroundImageFix"/>
<feColorMatrix in="SourceAlpha" type="matrix" values="0 0 0 0 0 0 0 0 0 0 0 0 0 0 0 0 0 0 127 0"/>
<feOffset dy="4"/>
<feGaussianBlur stdDeviation="2"/>
<feColorMatrix type="matrix" values="0 0 0 0 0 0 0 0 0 0 0 0 0 0 0 0 0 0 0.25 0"/>
<feBlend mode="normal" in2="BackgroundImageFix" result="effect1_dropShadow"/>
<feBlend mode="normal" in="SourceGraphic" in2="effect1_dropShadow" result="shape"/>
</filter>
<clipPath id="clip0">
<rect width="50" height="50" fill="white" transform="translate(4)"/>
</clipPath>
</defs>
</svg>
